<svg xmlns="http://www.w3.org/2000/svg" width="238" height="120" fill="none" viewBox="0 0 238 120">
  <path fill="url(#a)" d="M98.098 88.08c0 4.461 1.771 8.74 4.925 11.895a16.823 16.823 0 0 0 28.715-11.895h14.393a31.21 31.21 0 0 1-31.213 31.213A31.212 31.212 0 0 1 83.704 88.08h14.394ZM50.056 25.653c17.238 0 31.213 13.975 31.213 31.213 0 17.239-13.975 31.214-31.213 31.214-17.239 0-31.213-13.975-31.213-31.214 0-17.238 13.974-31.212 31.213-31.213Zm96.075 14.328h-4.958a31.067 31.067 0 0 1 4.958 16.885c0 17.239-13.974 31.214-31.213 31.214S83.704 74.105 83.704 56.866c0-17.238 13.975-31.213 31.214-31.213h31.213v14.328ZM14.426 86.871H0V3.912h14.426v82.96Zm152.693 0h-14.426V25.653h14.426v61.22Zm28.643-59.017h16.453v10.869h-16.453v30.423a7.022 7.022 0 0 0 2.051 4.736 7.022 7.022 0 0 0 4.963 2.056v.064h9.439l-.001 10.87h-14.877c-8.837 0-16-7.164-16-16v-32.15h-8.395V27.856h8.395V12.97h14.425v14.884Zm34.31 44.69c3.956 0 7.213 3.207 7.213 7.163 0 3.956-3.256 7.164-7.213 7.164-3.956 0-7.213-3.208-7.213-7.164.001-3.956 3.257-7.163 7.213-7.163Zm-180.016-32.5c-9.29.001-16.82 7.532-16.82 16.821 0 9.29 7.53 16.821 16.82 16.822 9.29 0 16.821-7.532 16.821-16.822s-7.531-16.82-16.821-16.82Zm64.862 0c-9.29 0-16.82 7.531-16.82 16.821 0 9.29 7.53 16.822 16.82 16.822s16.82-7.532 16.82-16.822-7.53-16.82-16.82-16.82ZM159.905 1c4.701 0 8.57 3.81 8.57 8.51 0 4.701-3.869 8.511-8.57 8.511-4.7 0-8.569-3.81-8.569-8.51 0-4.7 3.869-8.51 8.569-8.511Z"/>
  <path fill="url(#b)" d="M98.098 88.08c0 4.461 1.771 8.74 4.925 11.895a16.823 16.823 0 0 0 28.715-11.895h14.393a31.21 31.21 0 0 1-31.213 31.213A31.212 31.212 0 0 1 83.704 88.08h14.394ZM50.056 25.653c17.238 0 31.213 13.975 31.213 31.213 0 17.239-13.975 31.214-31.213 31.214-17.239 0-31.213-13.975-31.213-31.214 0-17.238 13.974-31.212 31.213-31.213Zm96.075 14.328h-4.958a31.067 31.067 0 0 1 4.958 16.885c0 17.239-13.974 31.214-31.213 31.214S83.704 74.105 83.704 56.866c0-17.238 13.975-31.213 31.214-31.213h31.213v14.328ZM14.426 86.871H0V3.912h14.426v82.96Zm152.693 0h-14.426V25.653h14.426v61.22Zm28.643-59.017h16.453v10.869h-16.453v30.423a7.022 7.022 0 0 0 2.051 4.736 7.022 7.022 0 0 0 4.963 2.056v.064h9.439l-.001 10.87h-14.877c-8.837 0-16-7.164-16-16v-32.15h-8.395V27.856h8.395V12.97h14.425v14.884Zm34.31 44.69c3.956 0 7.213 3.207 7.213 7.163 0 3.956-3.256 7.164-7.213 7.164-3.956 0-7.213-3.208-7.213-7.164.001-3.956 3.257-7.163 7.213-7.163Zm-180.016-32.5c-9.29.001-16.82 7.532-16.82 16.821 0 9.29 7.53 16.821 16.82 16.822 9.29 0 16.821-7.532 16.821-16.822s-7.531-16.82-16.821-16.82Zm64.862 0c-9.29 0-16.82 7.531-16.82 16.821 0 9.29 7.53 16.822 16.82 16.822s16.82-7.532 16.82-16.822-7.53-16.82-16.82-16.82ZM159.905 1c4.701 0 8.57 3.81 8.57 8.51 0 4.701-3.869 8.511-8.57 8.511-4.7 0-8.569-3.81-8.569-8.51 0-4.7 3.869-8.51 8.569-8.511Z"/>
  <defs>
    <linearGradient id="a" x1="-150" x2="237.285" y1="57.686" y2="57.686" gradientUnits="userSpaceOnUse">
      <stop stop-color="#00B2E3"/>
      <stop offset="1" stop-color="#0084E3"/>
    </linearGradient>
    <linearGradient id="b" x1="-423.661" x2="254.314" y1="-3.922" y2="272.978" gradientUnits="userSpaceOnUse">
      <stop stop-color="#418FFF"/>
      <stop offset="1" stop-color="#69C7EB"/>
    </linearGradient>
  </defs>
</svg>
